<?xml version="1.0" encoding="UTF-8" standalone="no"?>
<svg xmlns="http://www.w3.org/2000/svg" width="248" height="50" viewBox="0 0 248 50" fill="none">
  <path d="M0 10h11.26v30H0V10zm41.275 0H30.02v30h11.255V10zM16.088 20h9.177v20h-9.177V20zm0-10h9.177v7.5h-9.177V10zM53.665 10H42.41v30h11.255V10zm36.33 0h-9.2v12.5h-6.13V10h-9.204v30h9.203V30h6.13v10h9.2V10z" fill="#0A9E01"/>
  <path d="M102.44 10h-9.18v30h20.43V30h-11.25V10zm22.538 0v30h20.43V30h-11.255V22.5h9.177v-7.5h-9.177V17.5h11.255V10h-20.43zm45.497 15.85c0-3.2-.92-5.9-2.762-8.1-1.84-2.2-4.37-3.5-7.592-3.9V13.75c0-2.1-1.7-3.75-3.776-3.75-2.076 0-3.775 1.7-3.775 3.75v.1c-3.222.4-5.752 1.7-7.592 3.95-1.84 2.2-2.76 4.9-2.76 8.05 0 3.2.92 5.9 2.76 8.1 1.84 2.2 4.37 3.5 7.592 3.9v.15c0 2.1 1.7 3.75 3.775 3.75 2.076 0 3.776-1.7 3.776-3.75v-.15c3.222-.4 5.752-1.7 7.592-3.9 1.84-2.2 2.762-4.9 2.762-8.1zm-13.979 6.15v-12.4c1.84.3 2.761 2.1 2.761 6.2 0 4.1-.92 5.9-2.761 6.2zm-6.518-6.2c0-4.05.92-5.85 2.76-6.15v12.35c-1.84-.3-2.76-2.1-2.76-6.2zm34.243 1.55V10h-9.2v30h9.2V27.35L195.108 40h10.271l-11.318-15L205.38 10h-10.272l-10.887 13.35z" fill="#0A9E01"/>
  <path d="M216.67 10h-9.177v30h9.177V10zm27.153 5.8c-1.84-2-4.37-3.15-7.592-3.45V10h-9.177v30h9.177v-8.6h.92c3.223 0 5.752-1.05 7.592-3.15 1.84-2.1 2.762-4.8 2.762-8.1-.037-3.3-.92-6-3.682-8.35zm-9.66 10.95c-.92 0-1.84-.2-2.3-.55V17.3c.46-.35 1.38-.55 2.3-.55 1.84 0 2.761 1.5 2.761 4.5 0 3-1.38 5.5-2.761 5.5z" fill="#0A9E01"/>
</svg> 