<?xml version="1.0" encoding="UTF-8" standalone="no"?>
<svg xmlns="http://www.w3.org/2000/svg" width="256" height="50" viewBox="0 0 256 50" fill="none">
  <path d="M45 15.9167V38.0834L22.8333 38.0834V15.9167H45ZM50.8333 10.0834H17V44.0834H50.8333V10.0834Z" fill="#408B31"/>
  <path d="M66.1667 21.1667L71.2833 37.9167H75.5167L80.6333 21.1667H76.3167L73.3333 32.0834L70.3167 21.1667H66.1667ZM86.6333 21.1667V37.9167H90.5833V21.1667H86.6333ZM100.3 21.1667C97.2333 21.1667 94.7167 22.1334 94.7167 26V33.0834C94.7167 36.9501 97.2333 37.9167 100.3 37.9167H105.05V34.0834H100.3C99.6833 34.0834 98.6667 34.0834 98.6667 33.0834V26C98.6667 25.0001 99.6833 25.0001 100.3 25.0001H105.05V21.1667H100.3ZM111.617 21.1667V37.9167H115.567V31.5834H118.917C121.983 31.5834 124.5 30.6167 124.5 26.7501V26C124.5 22.1334 121.983 21.1667 118.917 21.1667H111.617ZM115.567 25.0001H118.917C119.533 25.0001 120.55 25.0001 120.55 26V26.7501C120.55 27.7501 119.533 27.7501 118.917 27.7501H115.567V25.0001ZM131.067 21.1667V37.9167H142.183V34.0834H135.017V31.0834H141.433V27.2501H135.017V25.0001H142.183V21.1667H131.067ZM148.75 21.1667V37.9167H152.7V21.1667H148.75ZM160.65 21.1667V37.9167H164.6V25.0001H167.183L170.567 37.9167H174.867L171.133 24.0334C170.867 22.6834 169.85 21.1667 167.367 21.1667H160.65ZM182.4 21.1667C179.333 21.1667 176.817 22.1334 176.817 26V33.0834C176.817 36.9501 179.333 37.9167 182.4 37.9167H185.783C188.85 37.9167 191.367 36.9501 191.367 33.0834V26C191.367 22.1334 188.85 21.1667 185.783 21.1667H182.4ZM182.4 25.0001H185.783C186.4 25.0001 187.417 25.0001 187.417 26V33.0834C187.417 34.0834 186.4 34.0834 185.783 34.0834H182.4C181.783 34.0834 180.767 34.0834 180.767 33.0834V26C180.767 25.0001 181.783 25.0001 182.4 25.0001ZM197.933 21.1667V37.9167H201.883V31.5834H205.233C208.3 31.5834 210.817 30.6167 210.817 26.7501V26C210.817 22.1334 208.3 21.1667 205.233 21.1667H197.933ZM201.883 25.0001H205.233C205.85 25.0001 206.867 25.0001 206.867 26V26.7501C206.867 27.7501 205.85 27.7501 205.233 27.7501H201.883V25.0001ZM217.383 21.1667V37.9167H228.5V34.0834H221.333V31.0834H227.75V27.2501H221.333V25.0001H228.5V21.1667H217.383ZM240.583 21.1667L235.467 28.5001V21.1667H231.517V37.9167H235.467V31.0834L241.333 37.9167H246.333L239.3 29.5001L245.1 21.1667H240.583Z" fill="#408B31"/>
  <path d="M88.6333 10.0834C87.5033 10.0834 86.5833 11.0034 86.5833 12.1334C86.5833 13.2634 87.5033 14.1834 88.6333 14.1834C89.7633 14.1834 90.6833 13.2634 90.6833 12.1334C90.6833 11.0034 89.7633 10.0834 88.6333 10.0834Z" fill="#408B31"/>
</svg> 