<?xml version="1.0" encoding="UTF-8" standalone="no"?>
<svg xmlns="http://www.w3.org/2000/svg" width="256" height="64" viewBox="0 0 256 64" fill="none">
  <rect width="256" height="64" rx="4" fill="#FF6600"/>
  <path d="M83.2 41L95.736 20.6H84.52V15.4H102.76V20.6L90.152 41H83.2Z" fill="white"/>
  <path d="M46 42.5C42.4 42.5 39.6333 41.9 37.7 40.7C35.7667 39.5 34.8 37.8 34.8 35.6C34.8 33.4667 35.6667 31.8667 37.4 30.8C39.1333 29.7333 41.2 29 43.6 28.6L52 27.3V26.7C52 25.2333 51.6 24.1333 50.8 23.4C50 22.6667 48.7333 22.3 47 22.3C45.4 22.3 44.1333 22.6333 43.2 23.3C42.2667 23.9667 41.8 24.8667 41.8 26C41.8 26.2667 41.8333 26.5333 41.9 26.8C41.9667 27.0667 42 27.2333 42 27.3H36.2C36.0667 26.9 35.9667 26.5333 35.9 26.2C35.8333 25.8 35.8 25.4 35.8 25C35.8 22.8 36.8 21.0667 38.8 19.8C40.8667 18.5333 43.6333 17.9 47.1 17.9C50.9 17.9 53.8333 18.6 55.9 20C57.9667 21.4 59 23.4333 59 26.1V41H52.8L52.5 37.4C51.7667 38.6667 50.8 39.6667 49.6 40.4C48.4 41.1333 46.8667 41.5 45 41.5H46ZM47.5 37.1C49.5 37.1 51.0333 36.4667 52.1 35.2V31.4L45.4 32.5C44.3333 32.7 43.4 33 42.7 33.4C42.0333 33.8 41.7 34.4 41.7 35.2C41.7 36 42.0667 36.6333 42.8 37.1C43.5333 37.5667 44.5667 37.8 45.9 37.8L47.5 37.1Z" fill="white"/>
  <path d="M75.7 17.9C77.3 17.9 78.7 18.1333 79.9 18.6C81.1667 19.0667 82.2667 19.8 83.2 20.8L83.6 17.9H89.9V41H83.6L83.2 38.1C82.2667 39.1 81.1333 39.8333 79.8 40.3C78.5333 40.7667 77.1333 41 75.6 41C73.2667 41 71.1667 40.4 69.3 39.2C67.5 38 66.0667 36.3 65 34.1C64 31.9 63.5 29.3667 63.5 26.5C63.5 23.6333 64 21.1 65 18.9C66 16.7 67.4333 15 69.2 13.8C71.0333 12.5333 73.1667 11.9 75.6 11.9L75.7 17.9ZM77.2 35.6C79.0667 35.6 80.5333 34.9667 81.6 33.7C82.6667 32.4333 83.2 30.6 83.2 28.2C83.2 25.8 82.6667 23.9667 81.6 22.7C80.5333 21.4333 79.0667 20.8 77.2 20.8C75.3333 20.8 73.8667 21.4333 72.8 22.7C71.7333 23.9667 71.2 25.7667 71.2 28.1C71.2 30.4333 71.7333 32.2667 72.8 33.6C73.8667 34.9333 75.3333 35.6 77.2 35.6Z" fill="white"/>
  <path d="M106.9 17.9C108.5 17.9 109.9 18.1333 111.1 18.6C112.367 19.0667 113.467 19.8 114.4 20.8L114.8 17.9H121.1V41H114.8L114.4 38.1C113.467 39.1 112.333 39.8333 111 40.3C109.733 40.7667 108.333 41 106.8 41C104.467 41 102.367 40.4 100.5 39.2C98.7 38 97.2667 36.3 96.2 34.1C95.2 31.9 94.7 29.3667 94.7 26.5C94.7 23.6333 95.2 21.1 96.2 18.9C97.2 16.7 98.6333 15 100.4 13.8C102.233 12.5333 104.367 11.9 106.8 11.9L106.9 17.9ZM108.4 35.6C110.267 35.6 111.733 34.9667 112.8 33.7C113.867 32.4333 114.4 30.6 114.4 28.2C114.4 25.8 113.867 23.9667 112.8 22.7C111.733 21.4333 110.267 20.8 108.4 20.8C106.533 20.8 105.067 21.4333 104 22.7C102.933 23.9667 102.4 25.7667 102.4 28.1C102.4 30.4333 102.933 32.2667 104 33.6C105.067 34.9333 106.533 35.6 108.4 35.6Z" fill="white"/>
  <path d="M142.1 41.5C139.433 41.5 137.033 40.9 134.9 39.7C132.833 38.5 131.2 36.7667 130 34.5C128.867 32.2333 128.3 29.6 128.3 26.6C128.3 23.6 128.867 20.9667 130 18.7C131.2 16.4333 132.833 14.7 134.9 13.5C137.033 12.3 139.433 11.7 142.1 11.7C145.633 11.7 148.5 12.6333 150.7 14.5C152.9 16.3667 154.1 19 154.3 22.4H147.3C147.1 20.9333 146.567 19.8 145.7 19C144.833 18.2 143.633 17.8 142.1 17.8C140.167 17.8 138.633 18.5 137.5 19.9C136.367 21.3 135.8 23.5 135.8 26.5C135.8 29.5 136.367 31.7 137.5 33.1C138.633 34.5 140.167 35.2 142.1 35.2C143.633 35.2 144.833 34.8 145.7 34C146.567 33.2 147.1 32.0667 147.3 30.6H154.3C154.1 34 152.9 36.6333 150.7 38.5C148.5 40.3667 145.633 41.3 142.1 41.3V41.5Z" fill="white"/>
  <path d="M170.8 41.5C167.6 41.5 165 40.9 163 39.7C161 38.5 159.533 36.7667 158.6 34.5C157.667 32.2333 157.2 29.6 157.2 26.6C157.2 23.6 157.667 20.9667 158.6 18.7C159.533 16.4333 161 14.7 163 13.5C165 12.3 167.6 11.7 170.8 11.7C174 11.7 176.6 12.3 178.6 13.5C180.6 14.7 182.067 16.4333 183 18.7C183.933 20.9667 184.4 23.6 184.4 26.6C184.4 29.6 183.933 32.2333 183 34.5C182.067 36.7667 180.6 38.5 178.6 39.7C176.6 40.9 174 41.5 170.8 41.5ZM170.8 35.3C172.733 35.3 174.2 34.6 175.2 33.2C176.2 31.8 176.7 29.6 176.7 26.6C176.7 23.6 176.2 21.4 175.2 20C174.2 18.6 172.733 17.9 170.8 17.9C168.867 17.9 167.4 18.6 166.4 20C165.4 21.4 164.9 23.6 164.9 26.6C164.9 29.6 165.4 31.8 166.4 33.2C167.4 34.6 168.867 35.3 170.8 35.3Z" fill="white"/>
  <path d="M200.7 41.5C198.033 41.5 195.867 40.8667 194.2 39.6C192.6 38.3333 191.433 36.5667 190.7 34.3C190.033 32.0333 189.7 29.4667 189.7 26.6C189.7 23.7333 190.033 21.1667 190.7 18.9C191.433 16.6333 192.6 14.8667 194.2 13.6C195.867 12.3333 198.033 11.7 200.7 11.7C203.233 11.7 205.433 12.3333 207.3 13.6C209.167 14.8667 210.267 16.7 210.6 19.1H203.6C203.267 17.6333 202.233 16.9 200.5 16.9C199.033 16.9 197.9 17.5 197.1 18.7C196.3 19.9 195.9 22.1 195.9 25.3V27.7C195.9 31.0333 196.3 33.3333 197.1 34.6C197.9 35.8 199.033 36.4 200.5 36.4C201.3 36.4 202 36.2 202.6 35.8C203.2 35.4 203.5 34.6333 203.5 33.5V32.2H200.8V27.2H210.5V41.1H205.3L205 38C203.933 40.3333 202 41.5 199.2 41.5H200.7Z" fill="white"/>
  <path d="M227.9 41.5C224.7 41.5 222.1 40.9 220.1 39.7C218.1 38.5 216.633 36.7667 215.7 34.5C214.767 32.2333 214.3 29.6 214.3 26.6C214.3 23.6 214.767 20.9667 215.7 18.7C216.633 16.4333 218.1 14.7 220.1 13.5C222.1 12.3 224.7 11.7 227.9 11.7C231.1 11.7 233.7 12.3 235.7 13.5C237.7 14.7 239.167 16.4333 240.1 18.7C241.033 20.9667 241.5 23.6 241.5 26.6C241.5 29.6 241.033 32.2333 240.1 34.5C239.167 36.7667 237.7 38.5 235.7 39.7C233.7 40.9 231.1 41.5 227.9 41.5ZM227.9 35.3C229.833 35.3 231.3 34.6 232.3 33.2C233.3 31.8 233.8 29.6 233.8 26.6C233.8 23.6 233.3 21.4 232.3 20C231.3 18.6 229.833 17.9 227.9 17.9C225.967 17.9 224.5 18.6 223.5 20C222.5 21.4 222 23.6 222 26.6C222 29.6 222.5 31.8 223.5 33.2C224.5 34.6 225.967 35.3 227.9 35.3Z" fill="white"/>
</svg> 